<?xml version="1.0" encoding="utf-8"?>
<!-- Generator: Adobe Illustrator 26.5.2, SVG Export Plug-In . SVG Version: 6.00 Build 0)  -->
<svg version="1.1" id="a" xmlns="http://www.w3.org/2000/svg" xmlns:xlink="http://www.w3.org/1999/xlink" x="0px" y="0px"
	 viewBox="0 0 385.5 101.3" style="enable-background:new 0 0 385.5 101.3;" xml:space="preserve">
<style type="text/css">
	.st0{fill:url(#SVGID_1_);}
	.st1{fill:url(#SVGID_00000098216312810827980990000011392717831733365678_);}
	.st2{fill:url(#SVGID_00000026125529445001528520000012491940386946867097_);}
	.st3{fill:#6B6B6B;}
</style>
<g>
	
		<radialGradient id="SVGID_1_" cx="46.39" cy="2371.5601" r="53.07" fx="-6.21" fy="2378.6001" gradientTransform="matrix(1 0 0 1 0 -2332)" gradientUnits="userSpaceOnUse">
		<stop  offset="0" style="stop-color:#FF228C"/>
		<stop  offset="0.12" style="stop-color:#F62086"/>
		<stop  offset="0.32" style="stop-color:#DE1C77"/>
		<stop  offset="0.56" style="stop-color:#B8155E"/>
		<stop  offset="0.63" style="stop-color:#AD1457"/>
		<stop  offset="0.68" style="stop-color:#A41457"/>
		<stop  offset="0.75" style="stop-color:#8C1459"/>
		<stop  offset="0.85" style="stop-color:#66145D"/>
		<stop  offset="0.96" style="stop-color:#311462"/>
		<stop  offset="1" style="stop-color:#1B1464"/>
	</radialGradient>
	<path class="st0" d="M74.1,40.4c-1.5-1.4-3.2-2.7-4.8-4.3C56.2,23,35.1,22.9,21.9,36c-5.5,5.5-11,10.9-16.5,16.4
		c-1.1,1.1-2.2,1.7-3.7,1.1C0.3,52.9,0,51.7,0,50.2c0-7,0-14.1,0-21.1c0-2.8,1.5-5.3,3.8-6.7C16.4,15.3,28.9,8.2,41.4,1
		c2.4-1.4,5.3-1.4,7.7,0c12.1,7,24.3,13.9,36.4,20.9c2.8,1.6,3.1,4.3,0.8,6.6C82.1,32.5,78,36.6,74.1,40.4L74.1,40.4z"/>
	
		<radialGradient id="SVGID_00000027606803975603638020000008730786919748170643_" cx="24.93" cy="2383.8899" r="55.22" gradientTransform="matrix(1 0 0 1 0 -2332)" gradientUnits="userSpaceOnUse">
		<stop  offset="0" style="stop-color:#FF228C"/>
		<stop  offset="5.000000e-02" style="stop-color:#F62086"/>
		<stop  offset="0.14" style="stop-color:#DE1C77"/>
		<stop  offset="0.25" style="stop-color:#B8155E"/>
		<stop  offset="0.28" style="stop-color:#AD1457"/>
		<stop  offset="0.37" style="stop-color:#A41457"/>
		<stop  offset="0.52" style="stop-color:#8C1459"/>
		<stop  offset="0.71" style="stop-color:#66145D"/>
		<stop  offset="0.92" style="stop-color:#311462"/>
		<stop  offset="1" style="stop-color:#1B1464"/>
	</radialGradient>
	<path style="fill:url(#SVGID_00000027606803975603638020000008730786919748170643_);" d="M24.2,50.8c4.3-6.9,10.2-11,18.4-11.2
		c8.1-0.2,15.9,4.4,19.3,11.3C57.7,57.7,51.8,61.8,43.6,62C35,62.2,28.7,58.1,24.2,50.8L24.2,50.8z M43.1,44.8c-3.4,0-6.1,2.8-6,6.1
		c0.1,3,2.4,5.6,5.5,5.9c3.6,0.3,6.6-2.5,6.6-6.1C49.1,47.5,46.4,44.8,43.1,44.8z"/>
	
		<radialGradient id="SVGID_00000109733078555935294610000003575268993409837487_" cx="42.47" cy="2393.53" r="51.62" fx="-6.877" fy="2378.3809" gradientTransform="matrix(1 0 0 1 0 -2332)" gradientUnits="userSpaceOnUse">
		<stop  offset="0" style="stop-color:#FF228C"/>
		<stop  offset="0.12" style="stop-color:#F62086"/>
		<stop  offset="0.32" style="stop-color:#DE1C77"/>
		<stop  offset="0.56" style="stop-color:#B8155E"/>
		<stop  offset="0.63" style="stop-color:#AD1457"/>
		<stop  offset="0.68" style="stop-color:#A41457"/>
		<stop  offset="0.75" style="stop-color:#8C1459"/>
		<stop  offset="0.85" style="stop-color:#66145D"/>
		<stop  offset="0.96" style="stop-color:#311462"/>
		<stop  offset="1" style="stop-color:#1B1464"/>
	</radialGradient>
	<path style="fill:url(#SVGID_00000109733078555935294610000003575268993409837487_);" d="M13.8,60.9c1.6,1.4,3.2,2.7,4.7,4.3
		C31.7,78.4,52.8,78.5,66,65.3c5.5-5.5,11-10.9,16.5-16.4c1.1-1.1,2.2-1.7,3.7-1.1c1.5,0.6,1.7,1.9,1.7,3.3c0,7,0,14.1,0,21.1
		c0,3-1.3,5.2-3.8,6.7C71.5,86,59,93.2,46.5,100.3c-2.4,1.4-5.3,1.4-7.7,0c-12.1-7-24.3-13.9-36.4-20.9c-2.8-1.6-3.1-4.3-0.8-6.6
		C5.7,68.8,9.9,64.7,13.8,60.9L13.8,60.9z"/>
</g>
<g>
	<path class="st3" d="M122.6,38.1l0.3,0.9l0.3-0.9l5-13.5h0.6l-5.6,14.9h-0.7L117,24.6h0.6L122.6,38.1L122.6,38.1z"/>
	<path class="st3" d="M130.7,25c0-0.2,0.1-0.3,0.2-0.4c0.1-0.1,0.2-0.2,0.4-0.2s0.3,0.1,0.4,0.2s0.2,0.2,0.2,0.4s-0.1,0.3-0.2,0.4
		c-0.1,0.1-0.2,0.2-0.4,0.2s-0.3,0-0.4-0.2S130.7,25.2,130.7,25z M131.6,39.5H131v-11h0.6V39.5z"/>
	<path class="st3" d="M134.7,33.9c0-1.8,0.4-3.1,1.1-4.1c0.7-1,1.8-1.5,3.1-1.5c0.8,0,1.6,0.2,2.2,0.6c0.6,0.4,1.1,0.9,1.6,1.7v-6.7
		h0.6v15.7h-0.6v-1.8c-0.4,0.6-0.9,1.1-1.6,1.5c-0.6,0.3-1.4,0.5-2.2,0.5c-1.3,0-2.3-0.5-3-1.5s-1.1-2.4-1.1-4.2L134.7,33.9
		L134.7,33.9z M135.3,34.1c0,1.6,0.3,2.8,0.9,3.7s1.5,1.4,2.6,1.4c0.9,0,1.7-0.2,2.3-0.6s1.1-1,1.4-1.8v-5.2
		c-0.6-1.9-1.9-2.8-3.8-2.8c-1.1,0-2,0.5-2.6,1.3C135.6,31,135.2,32.4,135.3,34.1L135.3,34.1z"/>
	<path class="st3" d="M150.7,39.8c-0.9,0-1.7-0.2-2.5-0.7s-1.3-1.1-1.8-2s-0.6-1.8-0.6-2.8v-0.5c0-1,0.2-2,0.6-2.8s1-1.5,1.7-2
		s1.5-0.7,2.3-0.7c1.2,0,2.2,0.4,3,1.3s1.2,2,1.2,3.5v0.6h-8.3v0.6c0,0.9,0.2,1.7,0.6,2.5s0.9,1.4,1.6,1.8c0.7,0.4,1.4,0.7,2.2,0.7
		s1.4-0.1,1.9-0.4s1-0.6,1.4-1.1l0.4,0.3C153.5,39.2,152.3,39.8,150.7,39.8L150.7,39.8z M150.5,28.8c-1.1,0-2,0.4-2.7,1.2
		s-1.2,1.8-1.3,3.1h7.7V33c0-0.8-0.2-1.5-0.5-2.1s-0.8-1.1-1.3-1.5C151.8,29,151.2,28.8,150.5,28.8z"/>
	<path class="st3" d="M156.4,33.8c0-1.1,0.2-2,0.6-2.9s1-1.5,1.7-2s1.6-0.7,2.5-0.7s1.8,0.2,2.5,0.7s1.3,1.1,1.7,1.9
		s0.6,1.8,0.6,2.8v0.5c0,1.1-0.2,2-0.6,2.9s-1,1.5-1.7,2s-1.6,0.7-2.5,0.7s-1.8-0.2-2.5-0.7s-1.3-1.1-1.7-2s-0.6-1.8-0.6-2.8V33.8
		L156.4,33.8z M156.9,34.2c0,0.9,0.2,1.8,0.6,2.5c0.4,0.8,0.9,1.4,1.5,1.8s1.4,0.6,2.2,0.6c1.3,0,2.3-0.5,3.1-1.4
		c0.8-1,1.2-2.2,1.2-3.7v-0.3c0-0.9-0.2-1.8-0.6-2.5c-0.4-0.8-0.9-1.4-1.5-1.8s-1.4-0.6-2.2-0.6c-1.3,0-2.3,0.5-3.1,1.4
		c-0.8,1-1.2,2.2-1.2,3.6V34.2L156.9,34.2z"/>
	<path class="st3" d="M184.6,33.2c0,1.3-0.2,2.4-0.7,3.4s-1.1,1.8-2,2.3s-1.8,0.8-2.9,0.8c-1.7,0-3-0.6-4.1-1.8s-1.6-2.8-1.6-4.8V31
		c0-1.3,0.2-2.4,0.7-3.4s1.1-1.8,2-2.3s1.8-0.8,2.9-0.8s2.1,0.3,2.9,0.8c0.9,0.5,1.5,1.3,2,2.3s0.7,2.1,0.7,3.4L184.6,33.2
		L184.6,33.2z M184.1,31c0-1.8-0.5-3.2-1.4-4.3c-0.9-1.1-2.1-1.6-3.7-1.6s-2.8,0.5-3.7,1.6s-1.4,2.5-1.4,4.4v2.2
		c0,1.2,0.2,2.2,0.6,3.2c0.4,0.9,1,1.6,1.8,2.1s1.7,0.7,2.7,0.7c1.6,0,2.8-0.5,3.7-1.6s1.4-2.6,1.4-4.4L184.1,31L184.1,31z"/>
	<path class="st3" d="M188.3,31.1c0.4-0.9,0.9-1.5,1.6-2c0.7-0.5,1.5-0.8,2.3-0.8c1.2,0,2.1,0.3,2.6,1s0.9,1.7,0.9,3v7.2h-0.6v-7.2
		c0-1.2-0.2-2.1-0.7-2.6s-1.2-0.9-2.3-0.9c-1,0-1.8,0.3-2.5,1s-1.2,1.5-1.4,2.6v7.1h-0.6v-11h0.6L188.3,31.1L188.3,31.1z"/>
	<path class="st3" d="M199.9,39.5h-0.6V23.8h0.6V39.5z"/>
	<path class="st3" d="M203.4,25c0-0.2,0.1-0.3,0.2-0.4c0.1-0.1,0.2-0.2,0.4-0.2s0.3,0.1,0.4,0.2s0.2,0.2,0.2,0.4s-0.1,0.3-0.2,0.4
		s-0.2,0.2-0.4,0.2s-0.3,0-0.4-0.2S203.4,25.2,203.4,25z M204.2,39.5h-0.6v-11h0.6V39.5z"/>
	<path class="st3" d="M208.4,31.1c0.4-0.9,0.9-1.5,1.6-2c0.7-0.5,1.5-0.8,2.3-0.8c1.2,0,2.1,0.3,2.6,1s0.9,1.7,0.9,3v7.2h-0.6v-7.2
		c0-1.2-0.2-2.1-0.7-2.6s-1.2-0.9-2.3-0.9c-1,0-1.8,0.3-2.5,1s-1.2,1.5-1.4,2.6v7.1h-0.6v-11h0.6L208.4,31.1L208.4,31.1z"/>
	<path class="st3" d="M223.3,39.8c-0.9,0-1.7-0.2-2.5-0.7s-1.3-1.1-1.8-2s-0.6-1.8-0.6-2.8v-0.5c0-1,0.2-2,0.6-2.8s1-1.5,1.7-2
		s1.5-0.7,2.3-0.7c1.2,0,2.2,0.4,3,1.3s1.2,2,1.2,3.5v0.6H219v0.6c0,0.9,0.2,1.7,0.6,2.5s0.9,1.4,1.6,1.8c0.7,0.4,1.4,0.7,2.2,0.7
		s1.4-0.1,1.9-0.4s1-0.6,1.4-1.1L227,38C226.2,39.2,224.9,39.8,223.3,39.8L223.3,39.8z M223.1,28.8c-1.1,0-2,0.4-2.7,1.2
		c-0.8,0.8-1.2,1.8-1.3,3.1h7.7V33c0-0.8-0.2-1.5-0.5-2.1s-0.8-1.1-1.3-1.5C224.4,29,223.8,28.8,223.1,28.8L223.1,28.8z"/>
</g>
<g>
	<path class="st3" d="M122.5,72.1h-3.7V50.8h3.7V72.1z"/>
	<path class="st3" d="M131.9,50.8l6.1,16.4l6.1-16.3h4.8v21.3h-3.7v-7l0.4-9.4l-6.3,16.4h-2.6l-6.3-16.4l0.4,9.4v7h-3.7V50.8H131.9
		L131.9,50.8z"/>
	<path class="st3" d="M158.1,50.8l6.1,16.4l6.1-16.3h4.8v21.3h-3.7v-7l0.4-9.4l-6.3,16.4H163l-6.3-16.4l0.4,9.4v7h-3.7V50.8H158.1
		L158.1,50.8z"/>
	<path class="st3" d="M192.1,62.6h-8.8v6.6h10.2v3h-13.9V50.8h13.8v3h-10.1v5.9h8.8V62.6L192.1,62.6z"/>
	<path class="st3" d="M204.4,63.9h-4.1v8.2h-3.7V50.8h7.5c2.5,0,4.4,0.5,5.7,1.7s2,2.7,2,4.8c0,1.4-0.3,2.6-1,3.6s-1.6,1.7-2.9,2.2
		l4.8,8.9v0.2h-4L204.4,63.9L204.4,63.9z M200.3,60.9h3.8c1.2,0,2.2-0.3,2.9-1c0.7-0.6,1.1-1.5,1.1-2.6s-0.3-2-1-2.7
		c-0.6-0.6-1.6-1-2.9-1h-3.9L200.3,60.9L200.3,60.9z"/>
	<path class="st3" d="M226.4,66.6c0-0.9-0.3-1.7-1-2.2s-1.9-1-3.6-1.5s-3.1-1.1-4.1-1.7c-1.9-1.2-2.9-2.8-2.9-4.8
		c0-1.7,0.7-3.1,2.1-4.2c1.4-1.1,3.2-1.7,5.5-1.7c1.5,0,2.8,0.3,4,0.8s2.1,1.3,2.7,2.3s1,2.1,1,3.4h-3.7c0-1.1-0.4-2-1.1-2.6
		s-1.7-1-3-1c-1.2,0-2.1,0.3-2.8,0.8s-1,1.2-1,2.2c0,0.8,0.4,1.4,1.1,2s1.9,1,3.6,1.5s3,1,4,1.7s1.7,1.3,2.2,2.2
		c0.5,0.8,0.7,1.8,0.7,2.9c0,1.8-0.7,3.2-2,4.2c-1.4,1.1-3.2,1.6-5.5,1.6c-1.5,0-3-0.3-4.3-0.9s-2.3-1.4-3-2.4s-1.1-2.2-1.1-3.5h3.7
		c0,1.2,0.4,2.2,1.2,2.8s1.9,1,3.4,1c1.3,0,2.3-0.3,2.9-0.8C226.1,68.1,226.4,67.4,226.4,66.6L226.4,66.6z"/>
	<path class="st3" d="M237.3,72.1h-3.7V50.8h3.7V72.1z"/>
	<path class="st3" d="M249.4,67.4l5.4-16.7h4.1L251.2,72h-3.6L240,50.8h4.1L249.4,67.4L249.4,67.4z"/>
	<path class="st3" d="M273.7,62.6H265v6.6h10.2v3h-14V50.8H275v3h-10v5.9h8.8L273.7,62.6L273.7,62.6z"/>
	<path class="st3" d="M298.1,67c0-0.9-0.2-1.7-0.6-2.3c-0.4-0.6-1.1-1.2-2-1.7s-2.3-1-4.1-1.5s-3.2-1-4.1-1.5s-1.6-1.1-2-1.8
		s-0.6-1.5-0.6-2.5c0-1.5,0.6-2.8,2-3.8s3-1.4,5.1-1.4c1.4,0,2.6,0.3,3.7,0.8s1.9,1.3,2.5,2.2c0.6,1,0.9,2,0.9,3.3h-0.8
		c0-1.6-0.6-2.9-1.8-4s-2.7-1.6-4.6-1.6s-3.4,0.4-4.5,1.2c-1.2,0.8-1.7,1.9-1.7,3.1s0.5,2.3,1.5,3.1s2.7,1.5,5,2.1s4,1.3,5.1,2.1
		c1.4,1,2,2.3,2,4c0,1.1-0.3,2-0.9,2.8s-1.5,1.5-2.6,1.9s-2.4,0.7-3.8,0.7c-1.5,0-2.9-0.3-4.2-0.8c-1.2-0.5-2.2-1.2-2.8-2.2
		s-0.9-2.1-0.9-3.3h0.8c0,1.8,0.6,3.1,2,4.1s3,1.4,5.1,1.4c1.9,0,3.4-0.4,4.6-1.3S298.1,68.3,298.1,67L298.1,67z"/>
	<path class="st3" d="M317.3,51.6h-7.8v20.5h-0.8V51.6H301v-0.8h16.3V51.6L317.3,51.6z"/>
	<path class="st3" d="M335.4,50.8v14.4c0,2.3-0.6,4-2,5.3s-3.1,1.9-5.3,1.9s-4-0.6-5.3-1.9s-2-3-2-5.2V50.8h0.8v14.4
		c0,2,0.6,3.5,1.8,4.7s2.8,1.7,4.7,1.7s3.5-0.6,4.7-1.7s1.8-2.7,1.8-4.7V50.8H335.4L335.4,50.8z"/>
	<path class="st3" d="M341,72.1V50.8h5.9c1.6,0,3.1,0.4,4.5,1.2s2.4,1.9,3.1,3.3s1.1,3,1.2,4.7v2.8c0,1.8-0.4,3.4-1.1,4.8
		c-0.8,1.4-1.8,2.5-3.1,3.3s-2.8,1.2-4.5,1.2H341L341,72.1z M341.8,51.5v19.8h5.1c1.5,0,2.9-0.4,4.1-1.1s2.2-1.7,2.9-3.1
		c0.7-1.3,1-2.8,1-4.3v-2.7c0-1.6-0.3-3-1-4.3s-1.6-2.3-2.8-3c-1.2-0.7-2.6-1.1-4-1.1L341.8,51.5L341.8,51.5z"/>
	<path class="st3" d="M362,72.1h-0.8V50.8h0.8V72.1z"/>
	<path class="st3" d="M383.6,63c0,1.9-0.3,3.5-1,4.9s-1.6,2.5-2.8,3.3c-1.2,0.8-2.6,1.2-4.2,1.2c-2.4,0-4.4-0.8-5.8-2.6
		s-2.2-4-2.2-6.9v-3.1c0-1.8,0.3-3.5,1-4.9s1.6-2.5,2.8-3.3c1.2-0.8,2.6-1.2,4.2-1.2s3,0.4,4.2,1.2s2.2,1.9,2.8,3.3
		c0.7,1.4,1,3.1,1,4.9V63L383.6,63z M382.8,59.8c0-2.6-0.6-4.6-2-6.2s-3.1-2.3-5.3-2.3s-4,0.8-5.3,2.3s-2,3.7-2,6.3V63
		c0,1.7,0.3,3.2,0.9,4.5s1.4,2.3,2.5,3s2.4,1.1,3.8,1.1c2.2,0,4-0.8,5.3-2.3s2-3.7,2-6.4L382.8,59.8L382.8,59.8z"/>
</g>
</svg>
