<?xml version="1.0" encoding="utf-8"?>
<!-- Generator: Adobe Illustrator 26.5.2, SVG Export Plug-In . SVG Version: 6.00 Build 0)  -->
<svg version="1.1" id="a" xmlns="http://www.w3.org/2000/svg" xmlns:xlink="http://www.w3.org/1999/xlink" x="0px" y="0px"
	 viewBox="0 0 395 79.1" style="enable-background:new 0 0 395 79.1;" xml:space="preserve">
<style type="text/css">
	.st0{fill:#6B6B6B;}
</style>
<g>
	<path class="st0" d="M8.9,41H3.5V6.9h5.4V41z"/>
	<path class="st0" d="M22.6,6.9l9,26.1l9-26.1h7V41h-5.4V29.8l0.5-15L33.5,41h-3.9l-9.2-26.3l0.5,15V41h-5.4V6.9
		C15.6,6.9,22.6,6.9,22.6,6.9z"/>
	<path class="st0" d="M61,6.9l9,26.1l9-26.1h7V41h-5.4V29.8l0.5-15L71.8,41H68l-9.2-26.3l0.5,15v11.2h-5.4V6.9H61L61,6.9z"/>
	<path class="st0" d="M110.6,25.8H97.8v10.5h15V41H92.3V6.9h20.2v4.8H97.8v9.4h12.8V25.8L110.6,25.8z"/>
	<path class="st0" d="M128.6,27.9h-6V41h-5.4V6.9h11c3.6,0,6.4,0.9,8.3,2.7s2.9,4.3,2.9,7.7c0,2.3-0.5,4.2-1.5,5.7s-2.4,2.7-4.2,3.5
		l7,14.2V41h-5.8L128.6,27.9L128.6,27.9z M122.5,23.1h5.6c1.8,0,3.2-0.5,4.3-1.5s1.5-2.4,1.5-4.1s-0.5-3.2-1.4-4.2
		c-0.9-1-2.4-1.5-4.2-1.6h-5.7C122.5,11.7,122.5,23.1,122.5,23.1z"/>
	<path class="st0" d="M160.8,32.3c0-1.5-0.5-2.7-1.4-3.5c-1-0.8-2.7-1.6-5.2-2.5s-4.5-1.8-6-2.8c-2.8-2-4.3-4.5-4.3-7.6
		c0-2.8,1-5,3.1-6.8s4.7-2.7,8-2.7c2.2,0,4.1,0.4,5.8,1.3c1.7,0.9,3,2.1,4,3.7s1.5,3.4,1.5,5.4h-5.4c0-1.8-0.5-3.2-1.5-4.2
		s-2.5-1.5-4.4-1.5c-1.8,0-3.1,0.4-4.1,1.2s-1.5,2-1.5,3.5c0,1.3,0.5,2.3,1.6,3.1c1.1,0.8,2.8,1.6,5.2,2.4s4.4,1.7,5.9,2.7
		c1.5,1,2.6,2.2,3.2,3.5c0.7,1.3,1,2.8,1,4.6c0,2.8-1,5.1-3,6.8s-4.7,2.5-8.1,2.5c-2.3,0-4.3-0.5-6.2-1.4s-3.4-2.2-4.4-3.8
		s-1.6-3.5-1.6-5.6h5.4c0,1.9,0.6,3.4,1.8,4.5c1.2,1.1,2.9,1.6,5,1.6c1.9,0,3.3-0.4,4.2-1.2S160.8,33.7,160.8,32.3L160.8,32.3z"/>
	<path class="st0" d="M176.7,41h-5.4V6.9h5.4V41z"/>
	<path class="st0" d="M194.3,33.6l7.9-26.7h5.9L197,41h-5.2L180.5,6.9h5.9L194.3,33.6L194.3,33.6z"/>
	<path class="st0" d="M229.9,25.8h-12.8v10.5h15V41h-20.4V6.9H232v4.8h-14.8v9.4h12.8L229.9,25.8L229.9,25.8z"/>
	<path class="st0" d="M267.2,32.9c0-1.5-0.3-2.7-0.9-3.7s-1.6-1.9-2.9-2.7s-3.4-1.6-6-2.4c-2.7-0.8-4.7-1.6-6.1-2.5s-2.3-1.8-3-2.9
		s-0.9-2.4-0.9-4c0-2.5,1-4.5,2.9-6c1.9-1.5,4.4-2.3,7.5-2.3c2,0,3.8,0.4,5.4,1.3s2.8,2.1,3.7,3.6c0.9,1.5,1.3,3.3,1.3,5.2h-1.2
		c0-2.5-0.9-4.6-2.6-6.3s-3.9-2.5-6.7-2.5s-5,0.7-6.6,2c-1.7,1.3-2.5,3-2.5,5s0.7,3.7,2.2,4.9c1.5,1.2,3.9,2.4,7.3,3.3
		c3.4,1,5.9,2.1,7.4,3.3c2,1.6,3,3.8,3,6.5c0,1.7-0.4,3.2-1.3,4.6c-0.9,1.3-2.1,2.3-3.8,3.1c-1.6,0.7-3.5,1.1-5.5,1.1
		c-2.3,0-4.3-0.4-6.1-1.2s-3.1-2-4.1-3.5c-0.9-1.5-1.4-3.3-1.4-5.4h1.2c0,2.8,1,5,2.9,6.5c1.9,1.5,4.4,2.3,7.5,2.3
		c2.7,0,5-0.7,6.8-2C266.3,36.8,267.2,35.1,267.2,32.9L267.2,32.9z"/>
	<path class="st0" d="M295.2,8.2h-11.4V41h-1.2V8.2h-11.4V6.9h23.9L295.2,8.2L295.2,8.2z"/>
	<path class="st0" d="M321.7,6.9V30c0,3.6-1,6.4-2.9,8.5s-4.5,3-7.8,3s-5.9-1-7.8-3s-2.9-4.8-2.9-8.4V6.9h1.2v23
		c0,3.2,0.9,5.6,2.6,7.5c1.7,1.8,4,2.8,6.9,2.8s5.2-0.9,6.9-2.8c1.7-1.8,2.6-4.3,2.6-7.5v-23H321.7L321.7,6.9z"/>
	<path class="st0" d="M329.9,41V6.9h8.6c2.4,0,4.6,0.6,6.5,1.9c2,1.2,3.5,3,4.6,5.3c1.1,2.3,1.7,4.8,1.7,7.6v4.4
		c0,2.8-0.5,5.4-1.6,7.7s-2.6,4.1-4.6,5.3c-2,1.3-4.1,1.9-6.5,1.9H329.9L329.9,41z M331.1,8.2v31.6h7.5c2.2,0,4.2-0.6,6-1.8
		c1.8-1.2,3.2-2.8,4.2-4.9s1.5-4.4,1.5-7v-4.4c0-2.5-0.5-4.9-1.5-6.9c-1-2.1-2.4-3.7-4.1-4.9c-1.8-1.2-3.7-1.8-5.9-1.8
		C338.7,8.2,331.1,8.2,331.1,8.2z"/>
	<path class="st0" d="M360.6,41h-1.2V6.9h1.2V41z"/>
	<path class="st0" d="M392.1,26.5c0,3-0.5,5.6-1.5,7.8c-1,2.3-2.3,4-4.1,5.3s-3.8,1.9-6.2,1.9c-3.5,0-6.4-1.4-8.5-4.1
		c-2.2-2.7-3.2-6.4-3.2-11.1v-4.9c0-2.9,0.5-5.5,1.5-7.8c1-2.3,2.3-4,4.1-5.3s3.8-1.9,6.2-1.9s4.4,0.6,6.2,1.9
		c1.8,1.2,3.2,3,4.1,5.3c1,2.3,1.5,4.9,1.5,7.8L392.1,26.5L392.1,26.5z M391,21.4c0-4.1-1-7.4-2.9-9.9s-4.5-3.7-7.8-3.7
		s-5.8,1.2-7.7,3.7c-1.9,2.5-2.9,5.8-2.9,10.1v5c0,2.7,0.4,5.1,1.3,7.2c0.9,2.1,2.1,3.7,3.7,4.8s3.5,1.7,5.6,1.7
		c3.2,0,5.8-1.2,7.7-3.7s2.9-5.9,2.9-10.2V21.4L391,21.4z"/>
</g>
<g>
	<path class="st0" d="M10.7,69.6l0.4,1.2l0.4-1.2l6.1-17.8h0.7l-6.8,19.8h-0.8L3.9,51.8h0.7C4.6,51.8,10.7,69.6,10.7,69.6z"/>
	<path class="st0" d="M20.6,52.3c0-0.2,0.1-0.4,0.2-0.5s0.3-0.2,0.5-0.2s0.4,0.1,0.5,0.2s0.2,0.3,0.2,0.5s-0.1,0.4-0.2,0.5
		C21.6,53,21.5,53,21.3,53s-0.4-0.1-0.5-0.2S20.6,52.5,20.6,52.3z M21.6,71.6h-0.7V56.9h0.7V71.6z"/>
	<path class="st0" d="M25.4,64.1c0-2.3,0.5-4.2,1.4-5.5s2.1-2,3.7-2c1,0,1.9,0.2,2.7,0.8s1.4,1.2,1.9,2.2v-8.9h0.7v20.8H35v-2.3
		c-0.5,0.8-1.1,1.5-1.9,1.9s-1.7,0.7-2.7,0.7c-1.6,0-2.8-0.7-3.7-2s-1.4-3.2-1.4-5.6L25.4,64.1L25.4,64.1z M26.1,64.4
		c0,2.1,0.4,3.7,1.1,4.9s1.8,1.8,3.2,1.8c1.1,0,2.1-0.3,2.8-0.8c0.8-0.5,1.4-1.3,1.8-2.4V61c-0.8-2.5-2.3-3.7-4.6-3.7
		c-1.4,0-2.4,0.6-3.2,1.8C26.5,60.3,26.1,62,26.1,64.4L26.1,64.4z"/>
	<path class="st0" d="M44.7,71.8c-1.1,0-2.1-0.3-3-1c-0.9-0.6-1.6-1.5-2.1-2.6s-0.8-2.3-0.8-3.7v-0.6c0-1.4,0.2-2.6,0.7-3.7
		c0.5-1.1,1.2-2,2-2.7c0.9-0.6,1.8-1,2.8-1c1.5,0,2.7,0.6,3.7,1.8s1.4,2.7,1.4,4.6v0.8H39.5v0.8c0,1.2,0.2,2.3,0.7,3.3
		c0.5,1,1.1,1.8,1.9,2.4s1.7,0.9,2.6,0.9s1.7-0.2,2.3-0.5c0.6-0.3,1.2-0.8,1.7-1.5l0.5,0.4C48.2,71,46.7,71.8,44.7,71.8L44.7,71.8z
		 M44.5,57.3c-1.3,0-2.4,0.5-3.3,1.6c-0.9,1.1-1.4,2.4-1.6,4.1h9.4v-0.2c0-1-0.2-1.9-0.6-2.8c-0.4-0.9-0.9-1.5-1.6-2
		C46.1,57.5,45.3,57.3,44.5,57.3L44.5,57.3z"/>
	<path class="st0" d="M51.7,63.9c0-1.4,0.2-2.7,0.7-3.8s1.2-2,2.1-2.6c0.9-0.6,1.9-0.9,3-0.9s2.1,0.3,3,0.9c0.9,0.6,1.6,1.5,2.1,2.6
		c0.5,1.1,0.8,2.4,0.8,3.8v0.6c0,1.4-0.2,2.7-0.7,3.8c-0.5,1.1-1.2,2-2.1,2.6c-0.9,0.6-1.9,0.9-3,0.9s-2.2-0.3-3-0.9
		c-0.9-0.6-1.6-1.5-2.1-2.6s-0.8-2.3-0.8-3.7L51.7,63.9L51.7,63.9z M52.4,64.5c0,1.2,0.2,2.3,0.7,3.4c0.4,1,1.1,1.8,1.8,2.4
		c0.8,0.6,1.7,0.8,2.7,0.8c1.5,0,2.8-0.6,3.7-1.9s1.5-2.9,1.5-4.9v-0.4c0-1.2-0.2-2.3-0.7-3.3c-0.5-1-1.1-1.8-1.8-2.4
		c-0.8-0.6-1.7-0.9-2.7-0.9c-1.5,0-2.8,0.6-3.8,1.9c-1,1.3-1.5,2.9-1.5,4.8L52.4,64.5L52.4,64.5z"/>
	<path class="st0" d="M85.9,63.2c0,1.7-0.3,3.2-0.8,4.5s-1.3,2.3-2.4,3.1s-2.2,1.1-3.6,1.1c-2,0-3.7-0.8-4.9-2.4
		c-1.3-1.6-1.9-3.7-1.9-6.4v-2.8c0-1.7,0.3-3.2,0.8-4.5s1.4-2.3,2.4-3.1c1-0.7,2.2-1.1,3.6-1.1s2.5,0.4,3.6,1.1s1.8,1.7,2.4,3.1
		c0.6,1.3,0.8,2.8,0.8,4.5L85.9,63.2L85.9,63.2z M85.2,60.2c0-2.4-0.6-4.3-1.7-5.8c-1.1-1.4-2.6-2.2-4.5-2.2s-3.3,0.7-4.4,2.2
		c-1.1,1.4-1.7,3.4-1.7,5.9v2.9c0,1.6,0.2,3,0.8,4.2s1.2,2.1,2.1,2.8s2,1,3.2,1c1.9,0,3.4-0.7,4.5-2.2c1.1-1.4,1.7-3.4,1.7-5.9
		L85.2,60.2L85.2,60.2z"/>
	<path class="st0" d="M90.4,60.3c0.4-1.1,1.1-2,1.9-2.7c0.8-0.7,1.8-1,2.8-1c1.4,0,2.5,0.5,3.2,1.3s1.1,2.2,1.1,4v9.6h-0.7V62
		c0-1.6-0.3-2.7-0.9-3.5c-0.6-0.8-1.5-1.1-2.8-1.1c-1.2,0-2.2,0.5-3,1.3s-1.4,2.1-1.7,3.5v9.4h-0.7V56.9h0.7L90.4,60.3L90.4,60.3z"
		/>
	<path class="st0" d="M104.4,71.6h-0.7V50.7h0.7V71.6z"/>
	<path class="st0" d="M108.7,52.3c0-0.2,0.1-0.4,0.2-0.5s0.3-0.2,0.5-0.2s0.3,0.1,0.5,0.2s0.2,0.3,0.2,0.5s-0.1,0.4-0.2,0.5
		c-0.1,0.1-0.3,0.2-0.5,0.2s-0.3-0.1-0.5-0.2S108.7,52.5,108.7,52.3z M109.7,71.6H109V56.9h0.7V71.6z"/>
	<path class="st0" d="M114.7,60.3c0.4-1.1,1.1-2,1.9-2.7c0.8-0.7,1.8-1,2.8-1c1.4,0,2.5,0.5,3.2,1.3s1.1,2.2,1.1,4v9.6h-0.7V62
		c0-1.6-0.3-2.7-0.9-3.5c-0.6-0.8-1.5-1.1-2.8-1.1c-1.2,0-2.2,0.5-3,1.3s-1.4,2.1-1.7,3.5v9.4h-0.7V56.9h0.7L114.7,60.3L114.7,60.3z
		"/>
	<path class="st0" d="M132.8,71.8c-1.1,0-2.1-0.3-3-1c-0.9-0.6-1.6-1.5-2.1-2.6s-0.8-2.3-0.8-3.7v-0.6c0-1.4,0.2-2.6,0.7-3.7
		c0.5-1.1,1.2-2,2-2.7c0.9-0.6,1.8-1,2.8-1c1.5,0,2.7,0.6,3.7,1.8s1.4,2.7,1.4,4.6v0.8h-10.1v0.8c0,1.2,0.2,2.3,0.7,3.3
		c0.5,1,1.1,1.8,1.9,2.4s1.7,0.9,2.6,0.9s1.7-0.2,2.3-0.5c0.6-0.3,1.2-0.8,1.7-1.5l0.5,0.4C136.3,71,134.8,71.8,132.8,71.8
		L132.8,71.8z M132.6,57.3c-1.3,0-2.4,0.5-3.3,1.6c-0.9,1.1-1.4,2.4-1.6,4.1h9.3v-0.2c0-1-0.2-1.9-0.6-2.8c-0.4-0.9-0.9-1.5-1.6-2
		C134.1,57.5,133.4,57.3,132.6,57.3L132.6,57.3z"/>
</g>
</svg>
