<svg id="a" xmlns="http://www.w3.org/2000/svg" xmlns:xlink="http://www.w3.org/1999/xlink" viewBox="0 0 385.53 101.35">
  <defs>
    <style>
      .e {
        fill: url(#d);
      }

      .f {
        fill: url(#c);
      }

      .g {
        fill: url(#b);
      }
    </style>
    <radialGradient id="b" cx="46.39" cy="39.56" fx="-6.21" fy="46.6" r="53.07"
      gradientTransform="matrix(1, 0, 0, 1, 0, 0)" gradientUnits="userSpaceOnUse">
      <stop offset="0" stop-color="#ff228c" />
      <stop offset=".12" stop-color="#f62086" />
      <stop offset=".32" stop-color="#de1c77" />
      <stop offset=".56" stop-color="#b8155e" />
      <stop offset=".63" stop-color="#ad1457" />
      <stop offset=".68" stop-color="#a41457" />
      <stop offset=".75" stop-color="#8c1459" />
      <stop offset=".85" stop-color="#66145d" />
      <stop offset=".96" stop-color="#311462" />
      <stop offset="1" stop-color="#1b1464" />
    </radialGradient>
    <radialGradient id="c" cx="24.93" cy="51.89" fx="24.93" fy="51.89" r="55.22"
      gradientTransform="matrix(1, 0, 0, 1, 0, 0)" gradientUnits="userSpaceOnUse">
      <stop offset="0" stop-color="#ff228c" />
      <stop offset=".05" stop-color="#f62086" />
      <stop offset=".14" stop-color="#de1c77" />
      <stop offset=".25" stop-color="#b8155e" />
      <stop offset=".28" stop-color="#ad1457" />
      <stop offset=".37" stop-color="#a41457" />
      <stop offset=".52" stop-color="#8c1459" />
      <stop offset=".71" stop-color="#66145d" />
      <stop offset=".92" stop-color="#311462" />
      <stop offset="1" stop-color="#1b1464" />
    </radialGradient>
    <radialGradient id="d" cx="42.47" cy="61.53" fx="-6.88" fy="46.38" r="51.62" xlink:href="#b" />
  </defs>
  <g>
    <path
      d="M74.08,40.44c-1.54-1.38-3.23-2.73-4.75-4.26-13.12-13.23-34.26-13.3-47.41-.14-5.49,5.49-11.03,10.93-16.51,16.43-1.07,1.07-2.2,1.7-3.69,1.07-1.46-.62-1.69-1.86-1.68-3.29,.03-7.04,.03-14.07,0-21.11-.01-2.76,1.46-5.3,3.85-6.67C16.39,15.32,28.89,8.18,41.39,1.03c2.4-1.37,5.34-1.37,7.73,0,12.13,6.96,24.26,13.91,36.39,20.87,2.8,1.6,3.12,4.28,.8,6.56-4.16,4.08-8.33,8.16-12.23,11.97Z"
      fill="url(#b)" />
    <path
      d="M24.2,50.84c4.26-6.9,10.17-10.99,18.37-11.21,8.13-.21,15.91,4.39,19.32,11.31-4.19,6.77-10.11,10.88-18.3,11.06-8.61,.19-14.86-3.95-19.39-11.17Zm18.88-6.02c-3.38,.02-6.07,2.75-6,6.14,.06,3.03,2.44,5.58,5.45,5.87,3.58,.35,6.63-2.55,6.61-6.06-.02-3.29-2.74-5.97-6.06-5.95Z"
      fill="url(#c)" />
    <path
      d="M13.78,60.91c1.55,1.38,3.24,2.73,4.75,4.26,13.13,13.23,34.28,13.3,47.45,.14,5.49-5.49,11.04-10.93,16.53-16.43,1.07-1.07,2.2-1.7,3.69-1.07,1.46,.62,1.69,1.86,1.68,3.29-.03,7.04-.03,14.09,0,21.13,.01,2.98-1.27,5.17-3.85,6.65-12.51,7.14-25.02,14.29-37.53,21.44-2.4,1.37-5.34,1.37-7.74,0-12.14-6.96-24.28-13.91-36.42-20.87-2.8-1.6-3.12-4.28-.8-6.56,4.16-4.08,8.34-8.16,12.24-11.97Z"
      fill="url(#d)" />
  </g>
  <g>
    <path d="M122.59,38.1l.3,.9,.3-.9,5-13.45h.6l-5.57,14.9h-.68l-5.57-14.9h.6l5,13.45Z" />
    <path
      d="M130.74,25.02c0-.16,.05-.29,.16-.4,.11-.11,.24-.17,.4-.17s.29,.06,.4,.17c.11,.11,.17,.25,.17,.4s-.06,.29-.17,.4c-.11,.11-.25,.16-.4,.16s-.29-.05-.4-.16c-.11-.11-.16-.24-.16-.4Zm.84,14.53h-.55v-11.07h.55v11.07Z" />
    <path
      d="M134.7,33.9c0-1.77,.37-3.15,1.12-4.14,.74-.99,1.76-1.49,3.06-1.49,.83,0,1.57,.19,2.21,.56,.64,.38,1.15,.94,1.55,1.68v-6.68h.55v15.72h-.55v-1.77c-.38,.63-.89,1.11-1.55,1.46-.65,.34-1.4,.52-2.23,.52-1.28,0-2.3-.51-3.04-1.53-.74-1.02-1.12-2.41-1.12-4.18v-.14Zm.57,.21c0,1.57,.31,2.81,.93,3.72,.62,.91,1.5,1.37,2.64,1.37,.91,0,1.69-.2,2.34-.61,.65-.41,1.13-1,1.44-1.79v-5.19c-.63-1.86-1.89-2.79-3.77-2.79-1.13,0-2.01,.45-2.65,1.34-.63,.89-.95,2.21-.95,3.95Z" />
    <path
      d="M150.66,39.76c-.89,0-1.71-.24-2.46-.72-.75-.48-1.33-1.14-1.75-1.98-.42-.84-.63-1.77-.63-2.79v-.46c0-1.02,.2-1.96,.61-2.81,.41-.85,.97-1.52,1.69-2s1.5-.72,2.34-.72c1.23,0,2.24,.44,3.03,1.32,.78,.88,1.18,2.04,1.18,3.47v.58h-8.3v.6c0,.9,.19,1.73,.57,2.5,.38,.77,.9,1.37,1.57,1.8,.67,.44,1.39,.65,2.16,.65s1.38-.12,1.9-.37,.98-.63,1.39-1.14l.39,.28c-.83,1.19-2.05,1.79-3.67,1.79Zm-.2-10.93c-1.08,0-1.99,.4-2.74,1.2s-1.19,1.82-1.32,3.06h7.72v-.13c0-.75-.16-1.45-.48-2.09-.32-.64-.75-1.15-1.31-1.5-.56-.36-1.18-.54-1.87-.54Z" />
    <path
      d="M156.4,33.8c0-1.06,.2-2.01,.61-2.85,.41-.84,.98-1.5,1.72-1.97,.74-.47,1.58-.71,2.51-.71s1.76,.23,2.5,.69c.74,.46,1.31,1.11,1.72,1.94,.41,.84,.62,1.78,.63,2.83v.49c0,1.06-.2,2.02-.6,2.86s-.97,1.49-1.71,1.96-1.58,.71-2.51,.71-1.77-.23-2.51-.7-1.31-1.11-1.72-1.95c-.41-.84-.62-1.78-.62-2.82v-.49Zm.55,.43c0,.92,.18,1.77,.55,2.53,.36,.77,.87,1.37,1.52,1.8s1.4,.64,2.24,.64c1.26,0,2.29-.47,3.09-1.42,.79-.95,1.19-2.17,1.19-3.66v-.32c0-.91-.18-1.75-.55-2.52-.37-.77-.88-1.37-1.53-1.81-.65-.43-1.39-.65-2.22-.65-1.26,0-2.29,.48-3.09,1.44-.8,.96-1.2,2.17-1.2,3.63v.33Z" />
    <path
      d="M184.63,33.22c0,1.29-.23,2.43-.69,3.42s-1.12,1.76-1.97,2.3c-.85,.54-1.83,.81-2.95,.81-1.68,0-3.04-.6-4.07-1.79s-1.56-2.8-1.56-4.83v-2.15c0-1.28,.23-2.42,.69-3.42,.46-1,1.12-1.76,1.97-2.31,.86-.54,1.84-.81,2.94-.81s2.1,.27,2.95,.81c.86,.54,1.52,1.31,1.98,2.31,.46,1,.7,2.14,.7,3.41v2.23Zm-.55-2.25c0-1.8-.46-3.25-1.37-4.33-.91-1.09-2.15-1.63-3.7-1.63s-2.76,.54-3.67,1.62-1.37,2.55-1.37,4.42v2.18c0,1.19,.21,2.24,.62,3.15,.41,.91,1,1.61,1.76,2.1s1.66,.74,2.68,.74c1.56,0,2.79-.54,3.69-1.63,.91-1.08,1.36-2.57,1.36-4.44v-2.17Z" />
    <path
      d="M188.3,31.06c.36-.86,.89-1.54,1.6-2.04,.7-.5,1.48-.75,2.33-.75,1.19,0,2.07,.34,2.64,1.01s.87,1.69,.88,3.04v7.22h-.55v-7.24c0-1.19-.25-2.06-.73-2.63s-1.23-.85-2.27-.85c-.96,0-1.78,.34-2.48,1.02-.7,.68-1.17,1.55-1.42,2.62v7.08h-.55v-11.07h.55v2.58Z" />
    <path d="M199.9,39.55h-.55v-15.72h.55v15.72Z" />
    <path
      d="M203.38,25.02c0-.16,.05-.29,.16-.4,.11-.11,.24-.17,.4-.17s.29,.06,.4,.17c.11,.11,.17,.25,.17,.4s-.06,.29-.17,.4-.25,.16-.4,.16-.29-.05-.4-.16c-.11-.11-.16-.24-.16-.4Zm.84,14.53h-.55v-11.07h.55v11.07Z" />
    <path
      d="M208.41,31.06c.36-.86,.89-1.54,1.6-2.04,.7-.5,1.48-.75,2.33-.75,1.19,0,2.07,.34,2.64,1.01s.87,1.69,.88,3.04v7.22h-.55v-7.24c0-1.19-.25-2.06-.73-2.63s-1.23-.85-2.27-.85c-.96,0-1.78,.34-2.48,1.02-.7,.68-1.17,1.55-1.42,2.62v7.08h-.55v-11.07h.55v2.58Z" />
    <path
      d="M223.31,39.76c-.89,0-1.71-.24-2.46-.72-.75-.48-1.33-1.14-1.75-1.98-.42-.84-.63-1.77-.63-2.79v-.46c0-1.02,.2-1.96,.61-2.81s.97-1.52,1.69-2c.72-.48,1.5-.72,2.34-.72,1.23,0,2.24,.44,3.03,1.32s1.18,2.04,1.18,3.47v.58h-8.3v.6c0,.9,.19,1.73,.57,2.5,.38,.77,.9,1.37,1.57,1.8,.67,.44,1.39,.65,2.16,.65s1.38-.12,1.9-.37,.98-.63,1.39-1.14l.39,.28c-.83,1.19-2.05,1.79-3.67,1.79Zm-.2-10.93c-1.08,0-1.99,.4-2.74,1.2-.75,.8-1.19,1.82-1.32,3.06h7.71v-.13c0-.75-.16-1.45-.48-2.09s-.75-1.15-1.31-1.5c-.56-.36-1.18-.54-1.87-.54Z" />
  </g>
  <g>
    <path d="M122.53,72.09h-3.69v-21.33h3.69v21.33Z" />
    <path
      d="M131.89,50.76l6.15,16.35,6.14-16.35h4.79v21.33h-3.69v-7.03l.37-9.4-6.3,16.43h-2.65l-6.28-16.42,.37,9.39v7.03h-3.69v-21.33h4.8Z" />
    <path
      d="M158.15,50.76l6.15,16.35,6.14-16.35h4.79v21.33h-3.69v-7.03l.37-9.4-6.3,16.43h-2.65l-6.28-16.42,.37,9.39v7.03h-3.69v-21.33h4.8Z" />
    <path d="M192.08,62.57h-8.76v6.56h10.24v2.96h-13.95v-21.33h13.84v2.99h-10.14v5.89h8.76v2.93Z" />
    <path
      d="M204.41,63.89h-4.13v8.2h-3.71v-21.33h7.5c2.46,0,4.36,.55,5.7,1.66,1.34,1.11,2.01,2.7,2.01,4.79,0,1.43-.34,2.62-1.03,3.58-.69,.96-1.65,1.7-2.88,2.22l4.79,8.88v.19h-3.97l-4.28-8.2Zm-4.13-2.99h3.81c1.25,0,2.23-.31,2.93-.95,.7-.63,1.05-1.49,1.05-2.58s-.33-2.03-.97-2.65c-.65-.62-1.62-.95-2.91-.97h-3.91v7.15Z" />
    <path
      d="M226.44,66.6c0-.94-.33-1.66-.99-2.17-.66-.51-1.85-1.02-3.57-1.54s-3.09-1.09-4.1-1.73c-1.94-1.22-2.92-2.81-2.92-4.77,0-1.72,.7-3.13,2.1-4.25,1.4-1.11,3.22-1.67,5.46-1.67,1.48,0,2.81,.27,3.97,.82s2.08,1.33,2.74,2.34c.66,1.01,1,2.13,1,3.36h-3.69c0-1.11-.35-1.98-1.05-2.61-.7-.63-1.7-.95-3-.95-1.21,0-2.15,.26-2.82,.78-.67,.52-1,1.24-1,2.17,0,.78,.36,1.43,1.08,1.96s1.91,1.03,3.57,1.52,2.99,1.05,4,1.68c1.01,.63,1.74,1.35,2.21,2.17,.47,.82,.7,1.77,.7,2.86,0,1.78-.68,3.19-2.04,4.24-1.36,1.05-3.21,1.57-5.54,1.57-1.54,0-2.96-.29-4.26-.86-1.29-.57-2.3-1.36-3.02-2.37-.72-1.01-1.08-2.18-1.08-3.52h3.71c0,1.21,.4,2.15,1.2,2.81s1.95,1,3.44,1c1.29,0,2.26-.26,2.91-.78,.65-.52,.97-1.21,.97-2.07Z" />
    <path d="M237.31,72.09h-3.69v-21.33h3.69v21.33Z" />
    <path d="M249.38,67.45l5.42-16.68h4.07l-7.68,21.33h-3.59l-7.65-21.33h4.06l5.36,16.68Z" />
    <path d="M273.74,62.57h-8.76v6.56h10.24v2.96h-13.95v-21.33h13.84v2.99h-10.14v5.89h8.76v2.93Z" />
    <path
      d="M298.14,66.98c0-.91-.21-1.68-.64-2.31-.43-.63-1.09-1.19-2.01-1.67-.91-.48-2.29-.98-4.14-1.49s-3.23-1.02-4.15-1.54c-.92-.52-1.6-1.12-2.03-1.8s-.64-1.51-.64-2.49c0-1.55,.65-2.81,1.96-3.77s3.01-1.44,5.11-1.44c1.37,0,2.59,.27,3.68,.8s1.93,1.28,2.53,2.24c.6,.96,.89,2.05,.89,3.26h-.79c0-1.59-.59-2.91-1.76-3.95-1.17-1.04-2.69-1.56-4.56-1.56s-3.39,.42-4.55,1.25c-1.16,.84-1.74,1.88-1.74,3.14s.5,2.31,1.51,3.09,2.67,1.47,4.98,2.07c2.31,.6,4.01,1.3,5.08,2.09,1.37,1.01,2.05,2.35,2.05,4.04,0,1.07-.3,2.02-.91,2.85-.61,.83-1.46,1.46-2.58,1.91s-2.36,.67-3.75,.67c-1.54,0-2.93-.26-4.16-.77-1.23-.51-2.16-1.24-2.78-2.19s-.93-2.07-.93-3.35h.79c0,1.75,.65,3.11,1.96,4.07s3.01,1.45,5.11,1.45c1.87,0,3.4-.43,4.61-1.28s1.82-1.97,1.82-3.33Z" />
    <path d="M317.3,51.56h-7.76v20.54h-.79v-20.54h-7.76v-.79h16.32v.79Z" />
    <path
      d="M335.39,50.76v14.44c0,2.26-.65,4.02-1.96,5.28s-3.08,1.9-5.32,1.9-4.01-.63-5.32-1.9-1.97-3.01-1.98-5.22v-14.5h.79v14.41c0,1.97,.59,3.54,1.78,4.69,1.19,1.15,2.76,1.73,4.72,1.73s3.54-.58,4.72-1.73,1.77-2.72,1.77-4.7v-14.4h.79Z" />
    <path
      d="M341.03,72.09v-21.33h5.9c1.65,0,3.14,.39,4.48,1.17s2.39,1.88,3.15,3.29,1.15,2.99,1.17,4.74v2.77c0,1.78-.37,3.38-1.12,4.8-.75,1.43-1.79,2.54-3.13,3.34s-2.83,1.21-4.48,1.22h-5.98Zm.79-20.54v19.75h5.11c1.49,0,2.85-.36,4.08-1.09,1.23-.73,2.19-1.74,2.88-3.05,.69-1.3,1.04-2.75,1.05-4.34v-2.74c0-1.59-.34-3.04-1.02-4.33-.68-1.3-1.63-2.32-2.84-3.05-1.22-.74-2.56-1.12-4.04-1.13h-5.23Z" />
    <path d="M362.03,72.09h-.79v-21.33h.79v21.33Z" />
    <path
      d="M383.58,63.02c0,1.85-.33,3.48-.99,4.9-.66,1.42-1.6,2.52-2.82,3.3-1.22,.78-2.63,1.16-4.22,1.16-2.4,0-4.35-.85-5.83-2.56s-2.23-4.01-2.23-6.91v-3.08c0-1.84,.33-3.47,.99-4.89,.66-1.43,1.6-2.53,2.83-3.3,1.23-.78,2.63-1.16,4.21-1.16s3,.39,4.23,1.16c1.23,.78,2.17,1.88,2.83,3.31,.66,1.43,1,3.06,1,4.88v3.19Zm-.79-3.22c0-2.58-.65-4.64-1.96-6.2-1.31-1.56-3.08-2.34-5.3-2.34s-3.95,.77-5.26,2.32-1.96,3.65-1.96,6.32v3.12c0,1.7,.29,3.2,.89,4.5,.59,1.3,1.43,2.31,2.53,3.01s2.37,1.05,3.84,1.05c2.23,0,3.99-.78,5.29-2.33s1.95-3.67,1.95-6.36v-3.11Z" />
  </g>
</svg>