<?xml version="1.0" encoding="UTF-8"?><svg id="a" xmlns="http://www.w3.org/2000/svg" viewBox="0 0 394.97 79.1"><g><path d="m8.89,41.05H3.49V6.94h5.4v34.11Z" fill="#6b6b6b"/><path d="m22.57,6.94l8.99,26.15,8.97-26.15h7v34.11h-5.4v-11.25l.54-15.04-9.21,26.29h-3.88l-9.19-26.26.54,15.02v11.25h-5.4V6.94h7.02Z" fill="#6b6b6b"/><path d="m60.96,6.94l8.99,26.15,8.97-26.15h7v34.11h-5.4v-11.25l.54-15.04-9.21,26.29h-3.88l-9.19-26.26.54,15.02v11.25h-5.4V6.94h7.02Z" fill="#6b6b6b"/><path d="m110.56,25.82h-12.81v10.5h14.97v4.73h-20.39V6.94h20.24v4.78h-14.82v9.42h12.81v4.69Z" fill="#6b6b6b"/><path d="m128.59,27.93h-6.04v13.12h-5.42V6.94h10.96c3.6,0,6.37.88,8.33,2.65,1.96,1.77,2.93,4.32,2.93,7.67,0,2.28-.5,4.19-1.51,5.73-1.01,1.54-2.41,2.72-4.21,3.55l7,14.21v.3h-5.8l-6.25-13.12Zm-6.04-4.78h5.57c1.83,0,3.25-.5,4.28-1.51,1.03-1.01,1.54-2.39,1.54-4.13s-.47-3.24-1.42-4.24c-.95-1-2.37-1.52-4.25-1.55h-5.72v11.43Z" fill="#6b6b6b"/><path d="m160.79,32.26c0-1.5-.48-2.66-1.45-3.47-.96-.81-2.7-1.63-5.21-2.46-2.51-.83-4.51-1.75-6-2.76-2.84-1.95-4.26-4.5-4.26-7.64,0-2.75,1.02-5.01,3.07-6.79,2.05-1.78,4.71-2.67,7.98-2.67,2.17,0,4.1.44,5.8,1.31,1.7.88,3.03,2.12,4,3.74.97,1.62,1.46,3.41,1.46,5.38h-5.4c0-1.78-.51-3.17-1.53-4.18-1.02-1.01-2.48-1.51-4.38-1.51-1.77,0-3.14.41-4.12,1.24-.98.83-1.47,1.98-1.47,3.47,0,1.25.53,2.29,1.58,3.13,1.06.84,2.8,1.65,5.23,2.44,2.43.79,4.38,1.69,5.85,2.69,1.47,1.01,2.55,2.16,3.23,3.47.69,1.3,1.03,2.83,1.03,4.58,0,2.84-1,5.1-2.99,6.78-1.99,1.68-4.69,2.52-8.1,2.52-2.26,0-4.33-.46-6.22-1.37-1.89-.91-3.36-2.17-4.41-3.78-1.05-1.61-1.57-3.48-1.57-5.62h5.42c0,1.94.59,3.44,1.76,4.5,1.17,1.06,2.85,1.59,5.03,1.59,1.88,0,3.3-.42,4.25-1.25.95-.83,1.42-1.94,1.42-3.32Z" fill="#6b6b6b"/><path d="m176.68,41.05h-5.4V6.94h5.4v34.11Z" fill="#6b6b6b"/><path d="m194.33,33.62l7.92-26.69h5.95l-11.22,34.11h-5.25l-11.18-34.11h5.93l7.84,26.69Z" fill="#6b6b6b"/><path d="m229.94,25.82h-12.8v10.5h14.97v4.73h-20.39V6.94h20.24v4.78h-14.82v9.42h12.8v4.69Z" fill="#6b6b6b"/><path d="m267.22,32.87c0-1.45-.31-2.68-.93-3.69-.62-1.01-1.6-1.9-2.93-2.67-1.33-.77-3.35-1.57-6.05-2.38-2.7-.81-4.72-1.63-6.07-2.46-1.35-.83-2.34-1.79-2.97-2.88-.63-1.09-.94-2.42-.94-3.98,0-2.48.96-4.49,2.87-6.03,1.91-1.54,4.4-2.31,7.47-2.31,2,0,3.79.43,5.38,1.28,1.59.85,2.82,2.05,3.69,3.58.87,1.54,1.31,3.28,1.31,5.21h-1.16c0-2.54-.86-4.65-2.57-6.31s-3.93-2.5-6.66-2.5-4.96.67-6.65,2c-1.69,1.33-2.54,3.01-2.54,5.03s.73,3.69,2.21,4.94c1.47,1.25,3.9,2.35,7.28,3.32,3.38.96,5.86,2.07,7.43,3.34,2,1.61,3,3.76,3,6.47,0,1.72-.44,3.24-1.33,4.56-.89,1.32-2.14,2.34-3.77,3.06-1.63.72-3.45,1.08-5.48,1.08-2.26,0-4.28-.41-6.08-1.23-1.8-.82-3.15-1.99-4.06-3.5-.91-1.52-1.36-3.3-1.36-5.37h1.16c0,2.8.96,4.97,2.87,6.51,1.91,1.55,4.4,2.32,7.47,2.32,2.73,0,4.97-.68,6.75-2.05,1.77-1.37,2.66-3.14,2.66-5.33Z" fill="#6b6b6b"/><path d="m295.23,8.2h-11.35v32.85h-1.16V8.2h-11.35v-1.27h23.85v1.27Z" fill="#6b6b6b"/><path d="m321.67,6.94v23.1c0,3.61-.96,6.42-2.87,8.45s-4.5,3.03-7.77,3.03-5.86-1.01-7.77-3.03c-1.91-2.02-2.88-4.81-2.89-8.35V6.94h1.16v23.05c0,3.16.87,5.65,2.6,7.5,1.73,1.84,4.04,2.76,6.91,2.76s5.17-.92,6.9-2.76c1.73-1.84,2.59-4.35,2.59-7.52V6.94h1.16Z" fill="#6b6b6b"/><path d="m329.92,41.05V6.94h8.63c2.41,0,4.6.62,6.55,1.88,1.96,1.25,3.49,3,4.6,5.26,1.11,2.26,1.68,4.78,1.71,7.58v4.43c0,2.84-.55,5.4-1.64,7.68s-2.62,4.06-4.57,5.34c-1.96,1.28-4.14,1.93-6.55,1.94h-8.74Zm1.16-32.85v31.58h7.47c2.18,0,4.17-.58,5.96-1.75,1.79-1.16,3.19-2.79,4.21-4.87,1.01-2.08,1.53-4.4,1.54-6.95v-4.38c0-2.54-.5-4.86-1.49-6.93s-2.38-3.71-4.15-4.88c-1.78-1.18-3.74-1.78-5.9-1.82h-7.64Z" fill="#6b6b6b"/><path d="m360.62,41.05h-1.16V6.94h1.16v34.11Z" fill="#6b6b6b"/><path d="m392.12,26.55c0,2.95-.48,5.56-1.45,7.84-.96,2.27-2.34,4.03-4.12,5.27-1.78,1.24-3.84,1.86-6.17,1.86-3.51,0-6.35-1.37-8.52-4.1-2.17-2.73-3.25-6.42-3.25-11.06v-4.92c0-2.94.48-5.54,1.45-7.83.96-2.28,2.34-4.04,4.13-5.28,1.79-1.24,3.84-1.86,6.16-1.86s4.39.62,6.18,1.86c1.79,1.24,3.17,3.01,4.14,5.29.97,2.29,1.46,4.89,1.46,7.81v5.11Zm-1.16-5.15c0-4.12-.96-7.43-2.87-9.92-1.91-2.49-4.5-3.74-7.75-3.74s-5.78,1.24-7.69,3.71c-1.91,2.48-2.87,5.85-2.87,10.11v4.99c0,2.72.43,5.12,1.3,7.2.86,2.08,2.09,3.69,3.69,4.81s3.47,1.69,5.61,1.69c3.25,0,5.83-1.24,7.73-3.72s2.85-5.87,2.85-10.17v-4.97Z" fill="#6b6b6b"/></g><g><path d="m10.71,69.64l.36,1.2.36-1.2,6.07-17.83h.73l-6.75,19.76h-.82l-6.75-19.76h.73l6.07,17.83Z" fill="#6b6b6b"/><path d="m20.59,52.3c0-.21.07-.39.2-.54s.29-.22.48-.22.35.07.49.22c.14.15.21.33.21.54s-.07.38-.21.53c-.14.14-.3.22-.49.22s-.35-.07-.48-.22-.2-.32-.2-.53Zm1.02,19.27h-.67v-14.69h.67v14.69Z" fill="#6b6b6b"/><path d="m25.39,64.08c0-2.34.45-4.17,1.35-5.49.9-1.32,2.14-1.98,3.71-1.98,1.01,0,1.9.25,2.67.75s1.4,1.24,1.88,2.23v-8.86h.67v20.85h-.67v-2.35c-.45.83-1.08,1.48-1.87,1.93s-1.7.69-2.7.69c-1.56,0-2.78-.67-3.68-2.02-.9-1.35-1.35-3.2-1.35-5.55v-.19Zm.69.29c0,2.08.38,3.73,1.13,4.93s1.82,1.81,3.2,1.81c1.11,0,2.06-.27,2.84-.81.79-.54,1.37-1.33,1.75-2.37v-6.88c-.77-2.47-2.29-3.71-4.56-3.71-1.37,0-2.44.59-3.21,1.78-.77,1.18-1.15,2.93-1.15,5.24Z" fill="#6b6b6b"/><path d="m44.74,71.84c-1.08,0-2.08-.32-2.98-.96-.91-.64-1.61-1.51-2.13-2.63s-.77-2.35-.77-3.71v-.61c0-1.36.25-2.6.74-3.73.5-1.13,1.18-2.01,2.05-2.65.87-.63,1.82-.95,2.84-.95,1.5,0,2.72.58,3.67,1.75.95,1.17,1.43,2.7,1.43,4.6v.77h-10.06v.8c0,1.19.23,2.3.69,3.31.46,1.02,1.09,1.81,1.9,2.39s1.68.87,2.62.87,1.67-.16,2.3-.49c.63-.33,1.19-.83,1.68-1.52l.47.37c-1,1.58-2.48,2.38-4.45,2.38Zm-.25-14.5c-1.31,0-2.42.53-3.32,1.59-.91,1.06-1.44,2.42-1.6,4.06h9.35v-.18c0-1-.19-1.92-.58-2.78-.38-.86-.91-1.52-1.59-2-.67-.48-1.43-.71-2.26-.71Z" fill="#6b6b6b"/><path d="m51.7,63.94c0-1.4.25-2.66.74-3.78.49-1.12,1.19-1.99,2.08-2.61.9-.62,1.91-.94,3.05-.94s2.13.3,3.03.91c.89.61,1.59,1.47,2.09,2.58.5,1.11.75,2.37.76,3.76v.65c0,1.41-.24,2.67-.73,3.79-.49,1.11-1.18,1.98-2.08,2.61-.9.62-1.91.94-3.05.94s-2.15-.31-3.05-.92c-.9-.62-1.59-1.48-2.09-2.59s-.75-2.35-.76-3.74v-.65Zm.67.57c0,1.22.22,2.34.66,3.36.44,1.02,1.06,1.81,1.85,2.38.79.57,1.69.85,2.71.85,1.53,0,2.78-.63,3.74-1.89s1.45-2.88,1.45-4.86v-.42c0-1.2-.22-2.32-.67-3.34-.45-1.02-1.06-1.82-1.85-2.4-.79-.57-1.69-.86-2.69-.86-1.53,0-2.78.64-3.75,1.91-.97,1.28-1.45,2.88-1.45,4.82v.43Z" fill="#6b6b6b"/><path d="m85.92,63.17c0,1.71-.28,3.22-.84,4.54-.56,1.32-1.35,2.33-2.39,3.05s-2.22,1.08-3.57,1.08c-2.03,0-3.68-.79-4.94-2.38-1.26-1.58-1.89-3.72-1.89-6.41v-2.85c0-1.7.28-3.21.84-4.53.56-1.32,1.36-2.34,2.39-3.06,1.04-.72,2.23-1.08,3.57-1.08s2.54.36,3.58,1.08c1.04.72,1.84,1.74,2.4,3.07.56,1.33.84,2.83.84,4.53v2.96Zm-.67-2.99c0-2.39-.55-4.3-1.66-5.75-1.11-1.44-2.6-2.17-4.49-2.17s-3.35.72-4.45,2.15c-1.11,1.43-1.66,3.39-1.66,5.86v2.89c0,1.57.25,2.97.75,4.17s1.21,2.14,2.14,2.79,2.01.98,3.25.98c1.89,0,3.38-.72,4.48-2.16,1.1-1.44,1.65-3.4,1.65-5.89v-2.88Z" fill="#6b6b6b"/><path d="m90.37,60.31c.44-1.14,1.08-2.04,1.94-2.7.85-.66,1.79-.99,2.83-.99,1.44,0,2.51.45,3.21,1.34.7.89,1.05,2.24,1.06,4.04v9.58h-.67v-9.6c0-1.57-.3-2.74-.88-3.49-.58-.75-1.5-1.13-2.75-1.13-1.16,0-2.16.45-3.01,1.35s-1.42,2.06-1.72,3.48v9.4h-.67v-14.69h.67v3.42Z" fill="#6b6b6b"/><path d="m104.44,71.57h-.67v-20.85h.67v20.85Z" fill="#6b6b6b"/><path d="m108.65,52.3c0-.21.07-.39.2-.54s.29-.22.48-.22.35.07.49.22c.14.15.21.33.21.54s-.07.38-.21.53c-.14.14-.3.22-.49.22s-.35-.07-.48-.22-.2-.32-.2-.53Zm1.02,19.27h-.67v-14.69h.67v14.69Z" fill="#6b6b6b"/><path d="m114.74,60.31c.44-1.14,1.08-2.04,1.94-2.7.85-.66,1.79-.99,2.83-.99,1.44,0,2.51.45,3.21,1.34.7.89,1.05,2.24,1.06,4.04v9.58h-.67v-9.6c0-1.57-.3-2.74-.88-3.49-.58-.75-1.5-1.13-2.75-1.13-1.16,0-2.16.45-3.01,1.35s-1.42,2.06-1.72,3.48v9.4h-.67v-14.69h.67v3.42Z" fill="#6b6b6b"/><path d="m132.81,71.84c-1.08,0-2.08-.32-2.98-.96-.91-.64-1.61-1.51-2.13-2.63s-.77-2.35-.77-3.71v-.61c0-1.36.25-2.6.74-3.73.5-1.13,1.18-2.01,2.05-2.65.87-.63,1.82-.95,2.84-.95,1.5,0,2.72.58,3.67,1.75.95,1.17,1.43,2.7,1.43,4.6v.77h-10.06v.8c0,1.19.23,2.3.69,3.31.46,1.02,1.09,1.81,1.9,2.39s1.68.87,2.62.87,1.67-.16,2.3-.49c.63-.33,1.19-.83,1.68-1.52l.47.37c-1,1.58-2.48,2.38-4.45,2.38Zm-.25-14.5c-1.31,0-2.42.53-3.32,1.59-.91,1.06-1.44,2.42-1.6,4.06h9.35v-.18c0-1-.19-1.92-.58-2.78-.38-.86-.91-1.52-1.59-2-.67-.48-1.43-.71-2.26-.71Z" fill="#6b6b6b"/><path d="m148.16,51.81l7.43,18.69,7.46-18.69h.98v19.76h-.67v-18.68l-7.49,18.68h-.53l-7.46-18.58v18.58h-.67v-19.76h.96Z" fill="#6b6b6b"/><path d="m177.31,71.57c-.17-.62-.25-1.52-.25-2.69-.53.94-1.25,1.67-2.17,2.19s-1.96.77-3.11.77c-1.24,0-2.24-.37-3-1.11-.76-.74-1.14-1.7-1.14-2.88,0-1.35.56-2.43,1.67-3.24,1.11-.81,2.59-1.22,4.43-1.24h3.31v-2.14c0-1.23-.35-2.19-1.06-2.86s-1.72-1.02-3.03-1.02c-1.22,0-2.25.34-3.06,1.03s-1.23,1.54-1.23,2.55l-.67-.03c0-1.19.48-2.21,1.44-3.04.96-.83,2.13-1.25,3.52-1.25s2.6.4,3.45,1.19c.85.79,1.29,1.91,1.31,3.34v7.02c0,1.61.12,2.71.35,3.28v.12h-.77Zm-5.53-.46c1.26,0,2.34-.31,3.24-.92.91-.62,1.59-1.48,2.04-2.59v-3.49h-3.1c-1.92,0-3.39.42-4.4,1.25-.83.68-1.24,1.52-1.24,2.54,0,.9.33,1.66.98,2.28.65.62,1.48.94,2.48.94Z" fill="#6b6b6b"/><path d="m182.72,60.31c.44-1.14,1.08-2.04,1.94-2.7.85-.66,1.79-.99,2.83-.99,1.44,0,2.51.45,3.21,1.34.7.89,1.05,2.24,1.06,4.04v9.58h-.67v-9.6c0-1.57-.3-2.74-.88-3.49-.58-.75-1.5-1.13-2.75-1.13-1.16,0-2.16.45-3.01,1.35s-1.42,2.06-1.72,3.48v9.4h-.67v-14.69h.67v3.42Z" fill="#6b6b6b"/><path d="m204.63,71.57c-.17-.62-.25-1.52-.25-2.69-.53.94-1.25,1.67-2.17,2.19s-1.96.77-3.11.77c-1.24,0-2.24-.37-3-1.11-.76-.74-1.14-1.7-1.14-2.88,0-1.35.56-2.43,1.67-3.24,1.11-.81,2.59-1.22,4.43-1.24h3.31v-2.14c0-1.23-.35-2.19-1.06-2.86s-1.72-1.02-3.03-1.02c-1.22,0-2.25.34-3.06,1.03s-1.23,1.54-1.23,2.55l-.67-.03c0-1.19.48-2.21,1.44-3.04.96-.83,2.13-1.25,3.52-1.25s2.6.4,3.45,1.19c.85.79,1.29,1.91,1.31,3.34v7.02c0,1.61.12,2.71.35,3.28v.12h-.77Zm-5.53-.46c1.26,0,2.34-.31,3.24-.92.91-.62,1.59-1.48,2.04-2.59v-3.49h-3.1c-1.92,0-3.39.42-4.4,1.25-.83.68-1.24,1.52-1.24,2.54,0,.9.33,1.66.98,2.28.65.62,1.48.94,2.48.94Z" fill="#6b6b6b"/><path d="m208.73,64.08c0-2.34.45-4.17,1.35-5.49.9-1.32,2.14-1.98,3.71-1.98,1,0,1.89.25,2.67.75.78.5,1.4,1.24,1.87,2.21v-2.69h.68v14.43c0,1.94-.46,3.45-1.36,4.54-.91,1.09-2.15,1.63-3.71,1.63-.9,0-1.73-.21-2.47-.64-.75-.43-1.39-1.04-1.92-1.84l.47-.49c.52.72,1.09,1.27,1.71,1.66.62.38,1.35.58,2.18.58,1.38,0,2.46-.46,3.22-1.38.77-.92,1.17-2.21,1.19-3.88v-2.25c-.46.83-1.09,1.47-1.88,1.92s-1.68.67-2.69.67c-1.55,0-2.78-.67-3.68-2.02-.9-1.35-1.35-3.2-1.35-5.55v-.19Zm.68.29c0,2.1.38,3.75,1.14,4.95s1.83,1.8,3.2,1.8c1.13,0,2.1-.29,2.89-.86s1.36-1.38,1.69-2.42v-6.66c-.73-2.54-2.25-3.81-4.55-3.81-1.38,0-2.45.59-3.22,1.78-.77,1.18-1.15,2.93-1.15,5.24Z" fill="#6b6b6b"/><path d="m228.12,71.84c-1.08,0-2.08-.32-2.98-.96s-1.61-1.51-2.13-2.63c-.51-1.11-.77-2.35-.77-3.71v-.61c0-1.36.25-2.6.74-3.73.5-1.13,1.18-2.01,2.05-2.65.87-.63,1.82-.95,2.84-.95,1.5,0,2.72.58,3.67,1.75.95,1.17,1.43,2.7,1.43,4.6v.77h-10.06v.8c0,1.19.23,2.3.69,3.31.46,1.02,1.09,1.81,1.9,2.39.81.58,1.68.87,2.62.87s1.67-.16,2.3-.49c.63-.33,1.19-.83,1.68-1.52l.47.37c-1,1.58-2.49,2.38-4.45,2.38Zm-.25-14.5c-1.31,0-2.42.53-3.32,1.59-.91,1.06-1.44,2.42-1.6,4.06h9.35v-.18c0-1-.19-1.92-.58-2.78-.38-.86-.91-1.52-1.59-2-.67-.48-1.43-.71-2.26-.71Z" fill="#6b6b6b"/><path d="m242.02,57.43l-.87-.08c-1.14,0-2.1.4-2.87,1.21-.77.81-1.27,1.94-1.51,3.4v9.61h-.67v-14.69h.67v3.05c.36-1.02.91-1.83,1.64-2.43.73-.6,1.64-.9,2.74-.9.39,0,.7.05.94.15l-.07.66Z" fill="#6b6b6b"/></g></svg>